<svg id="Capa_1" data-name="Capa 1" xmlns="http://www.w3.org/2000/svg" viewBox="0 0 473.86 792"><title>FB_Outline</title><g id="facebook"><path d="M614.58.13,494.2.18S491.76,0,487.37,0c-24.7,0-149.62,6.86-183.6,140.81-.53,1.48-12,35-12.15,113H177.42a18.36,18.36,0,0,0-18.35,18.35V377.37a18.36,18.36,0,0,0,18.35,18.36h124.9V773.65A18.36,18.36,0,0,0,320.67,792h143A18.36,18.36,0,0,0,482,773.65V396.11h125.3a18.36,18.36,0,0,0,18.35-18.35V272.15a18.36,18.36,0,0,0-18.35-18.35h-125V208.63c0-30.07,19.08-62.21,72.67-62.21h59.62a18.36,18.36,0,0,0,18.35-18.35V18.48A18.34,18.34,0,0,0,614.58.13ZM596.23,109.72H555c-75.55,0-109.37,49.68-109.37,98.91v63.52a18.36,18.36,0,0,0,18.35,18.35H589v68.91H463.68a18.36,18.36,0,0,0-18.35,18.35V755.3H339V377.37A18.36,18.36,0,0,0,320.67,359H195.77V290.5H310.12a18.36,18.36,0,0,0,18.35-18.72c-1.63-83.46,9.83-118.6,10.39-120.38C365.92,45,459.38,36.7,487.37,36.7c2.55,0,4.07.08,5.56.13h103.3v72.89Z" transform="translate(-159.07)"/></g></svg>