<svg id="Ebene_1" data-name="Ebene 1" xmlns="http://www.w3.org/2000/svg" viewBox="0 0 124.12 124.15"><defs><style>.cls-1,.cls-2{fill-rule:evenodd;}.cls-2{stroke:#000;stroke-miterlimit:10;}</style></defs><title>instagram-new</title><path class="cls-1" d="M8.4,70.38c0-8.55-.05-17.11,0-25.67a36.16,36.16,0,0,1,2.81-13.63,36.94,36.94,0,0,1,6.49-10.31A35.07,35.07,0,0,1,36.93,9.41a42.19,42.19,0,0,1,8.67-1c16.92-.08,33.84-.14,50.76,0a35.38,35.38,0,0,1,20.73,7,36.24,36.24,0,0,1,14.7,23.71,65.15,65.15,0,0,1,.7,11.25c0,15,.06,30.08-.05,45.11A38,38,0,0,1,129.35,110a36.44,36.44,0,0,1-9.84,13.44,34.94,34.94,0,0,1-15.34,7.81,48.11,48.11,0,0,1-10.78,1.24c-16.2-.05-32.4.08-48.59-.08a37.54,37.54,0,0,1-26.6-11.88,36.1,36.1,0,0,1-8.87-17,46.77,46.77,0,0,1-.94-10C8.42,85.82,8.4,78.1,8.4,70.38Zm5.76-.1q0,13.74,0,27.48a15.78,15.78,0,0,0,.26,3.07,31.39,31.39,0,0,0,10.91,18.74,30.31,30.31,0,0,0,19.4,7.11c17,.13,34.07.06,51.11,0a28.11,28.11,0,0,0,5.42-.5A31.2,31.2,0,0,0,120,114.83a30.29,30.29,0,0,0,6.66-19.07c.12-16.08.07-32.16,0-48.23a53.89,53.89,0,0,0-.73-8.61,29,29,0,0,0-7.6-15,28.91,28.91,0,0,0-7.19-5.74,27.81,27.81,0,0,0-13.5-4c-17.44-.08-34.88,0-52.32,0a41.63,41.63,0,0,0-5.89.47,29,29,0,0,0-15.74,7.87,29.42,29.42,0,0,0-7.48,11,27.48,27.48,0,0,0-2.08,10Z" transform="translate(-8.38 -8.36)"/><path class="cls-1" d="M70.4,101.28a30.94,30.94,0,1,1,30.86-29.21A30.88,30.88,0,0,1,70.4,101.28Zm-25.28-31a25.29,25.29,0,1,0,27-25.17C56.49,44,44.7,56.94,45.12,70.27Z" transform="translate(-8.38 -8.36)"/><path class="cls-2" d="M109.68,36.59a5.49,5.49,0,0,1-5.52,5.63,5.59,5.59,0,0,1-5.7-5.56A5.68,5.68,0,0,1,104.14,31C106.91,30.88,110.05,33.6,109.68,36.59Z" transform="translate(-8.38 -8.36)"/></svg>